<svg id="browser" xmlns="http://www.w3.org/2000/svg" width="54.568" height="48" viewBox="0 0 54.568 48">
  <path id="Path_13897" data-name="Path 13897" d="M2.022,0H50.547a2.022,2.022,0,0,1,2.022,2.022V43.978A2.022,2.022,0,0,1,50.547,46H2.022A2.022,2.022,0,0,1,0,43.978V2.022A2.022,2.022,0,0,1,2.022,0Z" transform="translate(1 1)" fill="#fff"/>
  <path id="Path_13855" data-name="Path 13855" d="M51.537,48H3.032A3.032,3.032,0,0,1,0,44.968V3.032A3.032,3.032,0,0,1,3.032,0H51.537a3.032,3.032,0,0,1,3.032,3.032V44.968A3.032,3.032,0,0,1,51.537,48ZM3.032,2.021A1.011,1.011,0,0,0,2.021,3.032V44.968a1.011,1.011,0,0,0,1.011,1.011H51.537a1.011,1.011,0,0,0,1.011-1.011V3.032a1.011,1.011,0,0,0-1.011-1.011Z"/>
  <path id="Path_13856" data-name="Path 13856" d="M3.022,1H51.547a2.011,2.011,0,0,1,2.022,2v7.5H1V3A2.011,2.011,0,0,1,3.022,1Z" transform="translate(0)" fill="#d0d0d0"/>
  <path id="Path_13857" data-name="Path 13857" d="M53.558,11.5H1.011A1,1,0,0,1,0,10.5V3A3.016,3.016,0,0,1,3.032,0H51.537a3.016,3.016,0,0,1,3.032,3v7.5A1,1,0,0,1,53.558,11.5ZM2.021,9.5H52.547V3a1,1,0,0,0-1.011-1H3.032A1,1,0,0,0,2.021,3Z"/>
  <path id="Path_13898" data-name="Path 13898" d="M0,0H9.75V9.75H0Z" transform="translate(1 10.639)" fill="#ffc627"/>
  <path id="Path_13858" data-name="Path 13858" d="M10.75,21.25H1a1,1,0,0,1-1-1V10.5a1,1,0,0,1,1-1h9.75a1,1,0,0,1,1,1v9.75A1,1,0,0,1,10.75,21.25ZM2,19.25H9.75V11.5H2Z" transform="translate(0 0.133)"/>
  <path id="Path_13859" data-name="Path 13859" d="M53,21.25H10.75a1,1,0,0,1-1-1V10.5a1,1,0,0,1,1-1H53a1,1,0,0,1,1,1v9.75A1,1,0,0,1,53,21.25Zm-41.25-2H52V11.5H11.75Z" transform="translate(0.568 0.133)"/>
  <path id="Path_13860" data-name="Path 13860" d="M6,4.5A1.5,1.5,0,1,0,7.5,6,1.5,1.5,0,0,0,6,4.5Z"/>
  <path id="Path_13861" data-name="Path 13861" d="M11,4.5A1.5,1.5,0,1,0,12.5,6,1.5,1.5,0,0,0,11,4.5Z" transform="translate(0.106)"/>
  <path id="Path_13862" data-name="Path 13862" d="M16,4.5A1.5,1.5,0,1,0,17.5,6,1.5,1.5,0,0,0,16,4.5Z" transform="translate(0.162)"/>
</svg>
