<svg xmlns="http://www.w3.org/2000/svg" width="18" height="17.544" viewBox="0 0 18 17.544">
  <path id="arrow-right-solid_icon_system_" data-name="arrow-right-solid (icon system)" d="M7.653,38.825l.892-.892a.96.96,0,0,1,1.362,0l7.81,7.806a.96.96,0,0,1,0,1.362l-7.81,7.81a.96.96,0,0,1-1.362,0l-.892-.892a.965.965,0,0,1,.016-1.378l4.841-4.612H.964A.962.962,0,0,1,0,47.065V45.779a.962.962,0,0,1,.964-.964H12.51L7.669,40.2A.958.958,0,0,1,7.653,38.825Z" transform="translate(0 -37.65)" fill="#ffc627"/>
</svg>
